<?xml version="1.0" encoding="utf-8"?>
<!-- Generator: Adobe Illustrator 24.1.1, SVG Export Plug-In . SVG Version: 6.00 Build 0)  -->
<svg version="1.1" id="Layer_1" xmlns="http://www.w3.org/2000/svg" xmlns:xlink="http://www.w3.org/1999/xlink" x="0px" y="0px"
	 viewBox="0 0 638 209" style="enable-background:new 0 0 638 209;" xml:space="preserve">
<style type="text/css">
	.st0{fill:#FFFFFF;}
</style>
<g>
	<g>
		<path class="st0" d="M556.8,186.8c0,0.2,0,0.3,0,0.5c-0.1,0.1-0.1,0.2-0.2,0.2c-0.6,0-1.2,0-1.9,0c-0.2-0.1-0.4,0-0.6-0.1
			c-3.8-0.2-7.4-1.3-11-2.2c-9.8-2.4-19.4-5.2-29.1-7.9c-0.2-0.1-0.4-0.1-0.7-0.2c-0.6-0.2-1.1-0.1-1.6,0.1
			c-2.3,1.2-4.7,2.3-7.2,3.3c-6.2,2.4-12.5,4.1-19.1,5c-2.5,0.3-5,0.5-7.5,0.7c-2.9,0.2-5.8,0.2-8.7,0.1c-3.4-0.1-6.8-0.5-10.2-1
			c-4.3-0.7-8.6-1.7-12.7-3.1c-3-1-6-2.1-8.8-3.5c-5.2-2.6-10.1-5.9-14.6-9.6c-2.7-2.3-5.3-4.7-7.7-7.3c-2.7-2.9-5.2-6-7.5-9.2
			c-2.8-4-5.2-8.2-7.2-12.5c-2.1-4.4-3.7-9-5-13.7c-1-3.6-1.7-7.3-2.2-10.9c-0.3-1.8-0.4-3.6-0.4-5.4c0-0.8-0.1-1.5-0.1-2.3
			c0-2.5-0.1-5,0-7.5c0-5.4,0.7-10.7,1.9-15.9c1.2-5.2,2.8-10.2,5-15c2.8-6.4,6.4-12.4,10.7-17.9c2.7-3.5,5.7-6.7,8.9-9.8
			c3.7-3.5,7.8-6.6,12.2-9.3c4.4-2.8,9-5,14-6.6c4.8-1.6,9.8-2.8,14.8-3.5c2.7-0.4,5.4-0.5,8.1-0.6c0.5,0,1-0.1,1.4-0.1
			c0.3,0,0.7,0,1,0c1.6,0,3.1,0,4.7,0c0.3,0,0.6,0,0.9,0c7.7,0,15.1,1.2,22.5,3.5c4,1.2,7.9,2.8,11.7,4.6c4.4,2.1,8.4,4.8,12.2,7.9
			c2.8,2.3,5.6,4.7,8.1,7.3c4,4.2,7.5,8.7,10.6,13.6c1.4,2.3,2.8,4.7,4,7.1c3.6,7.2,6,14.8,7.3,22.8c0.5,3,0.8,6,1,9
			c0.2,3,0.3,5.9,0.2,8.9c-0.1,3.4-0.3,6.9-0.8,10.3c-0.6,4.5-1.5,8.9-2.8,13.3c-0.9,3.1-2.1,6.1-3.4,9c-1,2.3-2.2,4.6-3.4,6.9
			c-0.7,1.3-0.9,1.4-2.1,0.5c-3-2.2-6-4.5-9-6.7c-5.4-4-10.7-7.9-16.1-11.9c-0.9-0.7-0.9-0.7-0.5-1.7c0.8-1.8,1.5-3.6,2.2-5.4
			c1.2-3.5,2.1-7.1,2.7-10.8c0.5-3.2,0.7-6.5,0.6-9.7c-0.1-4.1-0.7-8.1-1.7-12c-0.9-3.6-2.3-7-4-10.3c-1.8-3.3-3.9-6.3-6.4-9.1
			c-1.9-2.1-4.1-4-6.3-5.8c-2.3-1.9-4.7-3.7-7.3-5.2c-3-1.7-6.1-3-9.4-3.9c-3-0.8-6-1.4-9.1-1.6c-6.2-0.5-12.3,0.1-18.2,2
			c-5.4,1.7-10.3,4.3-14.6,8c-1.7,1.4-3.2,3.1-4.8,4.7c-1.5,1.6-3.1,3.2-4.4,5c-1.7,2.2-3.2,4.5-4.6,7c-2.1,3.9-3.7,7.9-4.8,12.2
			c-0.7,2.6-1.1,5.2-1.4,7.9c-0.2,1.7-0.2,3.4-0.2,5.1c0,5,0.7,9.8,2.1,14.6c1.8,6.2,4.6,11.9,8.6,17c1.2,1.6,2.5,3.1,4,4.6
			c0.9,0.9,1.7,1.8,2.6,2.6c2.8,2.8,5.9,5.3,9.4,7.2c5,2.9,10.4,4.6,16.1,5.3c2.7,0.4,5.5,0.5,8.2,0.4c6.2-0.3,12.1-1.6,17.7-4.2
			c3.5-1.6,6.7-3.7,9.6-6.2c0.6-0.5,1.3-1,1.9-1.5c0.4-0.3,0.8-0.2,1.1,0.1c1.2,1,2.4,2,3.7,3c3,2.5,6.1,5,9.1,7.5
			c2.6,2.1,5.1,4.2,7.6,6.3c3.6,3.1,7.4,5.8,11.2,8.7c4.9,3.8,9.8,7.6,14.6,11.5c1.5,1.2,3,2.5,4.4,3.9
			C556.3,185.5,556.7,186.1,556.8,186.8z"/>
		<path class="st0" d="M392.9,101c0-0.3,0-0.6,0.1-0.9c0.1,0.4,0,0.9,0,1.3c-0.1,1.8,0,3.7,0,5.5c0,0.3,0,0.6,0,0.9
			c-0.2-0.5-0.1-1.1-0.1-1.6c-0.1-0.4,0.1-0.8-0.1-1.2c0-1,0-2,0-3C392.9,101.8,392.7,101.4,392.9,101z"/>
		<path class="st0" d="M475.6,21.7c-1.6,0-3.3,0-4.9,0c-0.1,0-0.1-0.1,0-0.1c1.6,0,3.2,0,4.9,0C475.7,21.6,475.7,21.6,475.6,21.7z"
			/>
		<path class="st0" d="M392.9,101c0,0.4,0.1,0.8-0.1,1.1c0-0.4,0-0.7,0-1.1C392.8,101,392.8,101,392.9,101z"/>
		<path class="st0" d="M392.7,105.2c0.2,0.4,0.1,0.8,0.1,1.2c0,0-0.1,0-0.1,0C392.7,105.9,392.7,105.5,392.7,105.2z"/>
		<path class="st0" d="M470.7,21.5c0,0,0,0.1,0,0.1c-0.3,0-0.7,0.1-1,0c0,0,0-0.1,0-0.1C470,21.5,470.4,21.5,470.7,21.5z"/>
		<path class="st0" d="M475.6,21.7c0,0,0-0.1,0-0.1c0.3,0,0.6,0,0.9,0c0,0,0,0.1,0,0.1C476.2,21.7,475.9,21.7,475.6,21.7z"/>
		<path class="st0" d="M554.2,187.5c0,0,0-0.1,0-0.1c0.2,0,0.4,0,0.5,0.1C554.5,187.5,554.3,187.5,554.2,187.5z"/>
		<path class="st0" d="M556.5,187.5c0.1-0.1,0.1-0.2,0.2-0.2C556.8,187.5,556.8,187.6,556.5,187.5z"/>
	</g>
	<g>
		<g>
			<path class="st0" d="M246.5,168.8c0-2,0.3-3.8,0.8-5.2c0.5-1.5,1.3-2.6,2.2-3.6c0.9-0.9,2.1-1.6,3.4-2.1c1.3-0.5,2.8-0.7,4.4-0.7
				c1.7,0,3.2,0.3,4.5,0.8c1.3,0.5,2.4,1.2,3.3,2.2s1.5,2,2,3.3c0.5,1.3,0.7,2.6,0.7,4.1c0,2.9-0.7,5.2-2,7
				c-1.4,1.8-3.2,3.1-5.5,3.9l4.6,2.2c1,0.5,1.7,1.2,2,2.2c0.3,1,0.1,2.3-0.6,3.9l-12-6c-1.7-0.8-3-1.7-4-2.5
				c-1-0.9-1.8-1.8-2.3-2.8c-0.6-1-0.9-2-1.1-3.1C246.6,171.2,246.5,170.1,246.5,168.8z M256.5,176.7l1.4,0.7
				c0.7-0.6,1.2-1.2,1.8-1.7c0.5-0.6,1-1.2,1.3-1.8c0.4-0.6,0.6-1.4,0.8-2.2c0.2-0.8,0.3-1.7,0.3-2.8c0-2.4-0.4-4.2-1.3-5.3
				c-0.9-1.1-2.1-1.7-3.7-1.7c-1.6,0-2.8,0.6-3.7,1.7c-0.9,1.1-1.3,2.9-1.3,5.3c0,1.1,0.1,2,0.3,2.8c0.2,0.8,0.4,1.5,0.8,2.1
				c0.4,0.6,0.8,1.1,1.4,1.6S255.7,176.2,256.5,176.7z"/>
			<path class="st0" d="M271.6,157.6h5.5v17.7h10.3c0,0.3,0,0.6,0,1.1c0,0.4,0,0.9-0.1,1.3s-0.1,0.9-0.1,1.3s-0.2,0.8-0.3,1.1h-15.2
				V157.6z"/>
			<path class="st0" d="M289.4,159c0.4-0.5,1-1.1,1.6-1.7c0.6-0.6,1.2-1,1.7-1.4c0.5,0.4,1.1,0.9,1.7,1.5s1.1,1.1,1.5,1.6
				c-0.4,0.5-1,1.1-1.6,1.7c-0.6,0.6-1.1,1.1-1.7,1.4c-0.5-0.4-1.1-0.9-1.7-1.4S289.9,159.6,289.4,159z M290,180v-16.5h5.3V180H290z
				"/>
			<path class="st0" d="M304.2,176.6c0.6,0,1.1,0,1.5-0.1c0.4,0,0.7-0.1,0.9-0.2c0.2-0.1,0.4-0.2,0.5-0.4c0.1-0.2,0.1-0.4,0.1-0.6
				c0-0.4-0.2-0.7-0.6-0.9c-0.4-0.2-1-0.4-1.6-0.5c-0.6-0.1-1.3-0.3-2.1-0.4c-0.8-0.2-1.5-0.4-2.1-0.8c-0.6-0.4-1.2-0.8-1.6-1.5
				c-0.4-0.6-0.6-1.5-0.6-2.5c0-1.9,0.7-3.3,2.1-4.2c1.4-0.9,3.4-1.4,6-1.4c0.9,0,1.9,0.1,2.8,0.2c0.9,0.2,1.7,0.3,2.4,0.5
				c0,0.3,0,0.6-0.1,0.9s-0.1,0.7-0.1,1c-0.1,0.3-0.1,0.7-0.2,1c-0.1,0.3-0.1,0.6-0.2,0.8c-0.8-0.2-1.6-0.4-2.3-0.5
				s-1.5-0.2-2.2-0.2c-1,0-1.7,0.1-2.1,0.3c-0.4,0.2-0.6,0.5-0.6,1c0,0.4,0.2,0.7,0.6,0.8c0.4,0.2,1,0.3,1.6,0.4s1.3,0.3,2.1,0.4
				c0.8,0.1,1.5,0.4,2.1,0.7c0.6,0.3,1.2,0.8,1.6,1.5c0.4,0.6,0.6,1.5,0.6,2.6c0,1.1-0.2,1.9-0.6,2.7c-0.4,0.7-1,1.3-1.7,1.8
				c-0.7,0.5-1.5,0.8-2.5,1s-2,0.3-3.1,0.3c-0.5,0-1,0-1.6-0.1c-0.6,0-1.1-0.1-1.7-0.2c-0.6-0.1-1.1-0.1-1.5-0.2
				c-0.5-0.1-0.8-0.2-1-0.3c-0.2-0.6-0.4-1.2-0.5-1.9c-0.1-0.7-0.2-1.3-0.3-1.9c0.3,0.1,0.7,0.2,1.2,0.3c0.5,0.1,1,0.2,1.5,0.2
				c0.5,0.1,1.1,0.1,1.6,0.2C303.2,176.5,303.7,176.6,304.2,176.6z"/>
			<path class="st0" d="M313.3,167.6c0-0.3,0-0.6,0-1c0-0.4,0-0.7,0-1.1c0-0.4,0.1-0.7,0.1-1.1c0-0.3,0.1-0.6,0.1-0.9h2.3v-2.3
				c0.3-0.3,0.7-0.6,1.1-1c0.4-0.3,0.9-0.6,1.4-0.9c0.5-0.3,1-0.5,1.5-0.7c0.5-0.2,1-0.3,1.4-0.4v5.7c1.1-0.2,2-0.3,2.9-0.3
				c0.9-0.1,1.8-0.1,2.8-0.1c0,0.4,0,0.8,0,1.1c0,0.3-0.1,0.6-0.1,1c-0.1,0.3-0.1,0.6-0.2,0.9c-0.1,0.3-0.2,0.7-0.3,1
				c-0.8,0-1.5,0-2.3,0c-0.8,0-1.7-0.1-2.7-0.2v6.2c0,1.1,0.3,1.8,0.8,2.2s1.2,0.6,2,0.6c0.9,0,1.9-0.1,2.9-0.3c0,0.3,0,0.6,0,0.9
				c0,0.3-0.1,0.7-0.1,1c-0.1,0.3-0.1,0.7-0.2,1s-0.1,0.6-0.2,0.8c-0.5,0.2-1.1,0.3-1.8,0.4c-0.7,0.1-1.4,0.2-2.1,0.2
				c-2.1,0-3.8-0.5-4.9-1.4s-1.7-2.5-1.7-4.6v-6.7H313.3z"/>
		</g>
		<g>
			<path class="st0" d="M168.2,145h-26.8c-8.6,12.5-19.1,23.4-31.4,32.9l-24.8-17.7c9.9-7.5,18.2-15.8,24.8-25
				c-7.8-2.1-14.3-5.6-19.6-10.5c-6.2-5.7-9.2-12.2-9.2-19.5c0-8.4,5.4-18.8,16.1-31.3c10.9-12.7,20.5-19.1,28.7-19.1
				c23.8,0,35.7,11.2,35.7,33.6c0,7.6-1.4,16.4-4.2,26.4c-0.4,1.3-0.9,2.6-1.8,4.1h12.6V145z M133.7,99.8c1.9-4,2.8-7.5,2.8-10.5
				c0-4.6-2-6.9-6.1-6.9c-3.1,0-6.8,2-10.9,6c-5.8,5.6-8.7,10.5-8.7,14.7c0,5.9,4.5,9.4,13.4,10.6
				C127.2,111.4,130.3,106.8,133.7,99.8z"/>
			<path class="st0" d="M182.8,159.4l-4.3,23.8h-27l4.7-23.8H182.8z M237.7,145h-17.5c-4.3,0-8.2-2.1-11.7-6.4
				c-2.1,4.3-5.2,6.4-9.4,6.4h-37.6v-26.2h16.2c4.3,0,7-0.8,8.2-2.3c0.6-0.8,1.4-3.6,2.4-8.3L199.1,55l29.1,9.4l-8.9,45.2
				c-0.4,1.8-0.5,3.1-0.5,4c0,3.4,2.1,5,6.4,5h12.6V145z M217.2,159.4l-4.5,23.8h-26.9l4.7-23.8H217.2z"/>
			<path class="st0" d="M299.8,145h-70.9v-26.2h70.9V145z"/>
			<path class="st0" d="M381.5,21.4l-5.1,24h-33.1c17.4,27.6,26.1,53.3,26.1,77.1c0,4.7-1.3,9.4-3.9,14.1c-3.1,5.5-6.8,8.3-11,8.3
				h-63.7v-26.2h36.6c6.5,0,9.8-1.5,9.8-4.5c0-0.6-0.1-1.3-0.3-2.3c-2.5-11.2-5.5-21-9-29.4c-3.8-9-10.3-21.2-19.3-36.7
				c1.9-8.5,3.3-13.8,4.3-16c2.7-5.6,6.8-8.4,12.4-8.4H381.5z"/>
		</g>
	</g>
</g>
</svg>
