<?xml version="1.0" encoding="utf-8"?>
<!-- Generator: Adobe Illustrator 24.1.1, SVG Export Plug-In . SVG Version: 6.00 Build 0)  -->
<svg version="1.1" id="Layer_1" xmlns="http://www.w3.org/2000/svg" xmlns:xlink="http://www.w3.org/1999/xlink" x="0px" y="0px"
	 viewBox="0 0 246.3 246.4" style="enable-background:new 0 0 246.3 246.4;" xml:space="preserve">
<style type="text/css">
	.st0{fill:#171DCD;}
</style>
<g>
	<g>
		<g>
			<path class="st0" d="M217.9,170.1c-17.3,1-34.7-3.2-49.9-11.4c-0.1-4.9,0-9.8-0.1-14.7c12.1,7.9,26.2,12.9,40.7,13.5
				c4.5-19.3,1.8-40.2-7.8-57.6c-13-24.1-38.9-40.2-66.2-41.6c-0.4,1.9-0.7,3.8-1.1,5.7c7.7,0.1,16-0.7,22.9,3.2
				c4.4,2.4,6.3,7.5,6.7,12.3c0.6,12.3-0.3,24.6,0.5,36.9c0.5,4.2,5,4.2,8.2,5c3.4,2,2.3,6.5,2.2,9.8c-0.4,3.3-4,3.6-6.6,4
				c-3.1,0.4-4.2,3.9-4.1,6.6c-0.1,10.6,0.1,21.1,0,31.7c-0.1,5.5-1.5,11.7-6.5,14.8c-6.8,4.2-15.2,3.4-22.8,3.5c0-4.5,0-9,0-13.5
				c3.8-0.2,8.1-0.2,11.2-2.8c2.1-1.7,2.7-4.6,2.7-7.1c0.1-8.5,0-17,0-25.4c0.1-3.6,0.5-7.5,2.7-10.5c1.6-2.3,4.3-3.3,6.5-4.7
				c-5.1-1.4-8.8-6-9-11.2c-0.7-10,0-20.1-0.3-30.2c-0.1-2.7-1.4-5.4-3.8-6.8c-3.8-2.1-8.4-1.9-12.6-1.9c-7.7,0.2-15.5-0.2-23.2,0.1
				c-4.2,0.2-9.2,2.3-9.7,7c-0.9,10.9,0.5,21.9-0.7,32.8c-0.4,5-4.4,8.6-8.8,10.4c4.3,1.4,8.1,4.8,8.7,9.5
				c1.5,11.2-0.2,22.6,0.9,33.9c1.3,6.1,8.5,6.8,13.6,6.8c0,4.5,0,9,0,13.5c-7.7-0.2-16.1,0.7-22.8-3.6c-4.9-3.1-6.3-9.2-6.4-14.7
				c-0.1-10.6,0-21.1,0-31.7c0-2.4-0.6-5.3-3-6.3c-2.5-0.9-6-0.3-7.4-3.2c-0.7-3-0.9-6.3,0.2-9.2c1.8-3.3,6.5-1.2,8.7-4
				c1.4-1.6,1.4-3.8,1.5-5.7c0.1-10.5-0.1-21.1,0-31.6c0.1-5.5,1.7-11.7,6.9-14.5c6.9-3.9,15.2-3,22.9-3.2c-0.4-1.9-0.7-3.7-1-5.6
				c-19.4,0.8-38.2,9.3-52.1,22.9c-20,19.3-28.4,49.3-21.9,76.2c14.5-0.5,28.6-5.6,40.7-13.5c0,4.8-0.1,9.6,0.1,14.4
				c-15.1,8.7-32.7,12.5-50,11.7c-6.8-19.6-7.2-41.5-0.5-61.2c6.3-19.2,19.3-36.1,36.2-47.4C79.5,51.2,97.7,45.8,116,45.6
				c-1.9-3.5-4.3-6.9-8-8.7c-5.6-3.4-12.8-2.4-18.3-6c-2.7-1.8-5.3-4.9-4.6-8.3c1-3.3,4.2-5.7,7.7-5.9c5.7-0.3,11.5,2.1,15.2,6.5
				c5.5,6.4,8.6,14.5,11,22.5c2.9,0,5.7,0,8.6,0c2.4-7.8,5.4-15.6,10.6-21.9c3.9-5,10.5-7.7,16.7-6.9c4.3,0.5,8.4,5.4,6,9.7
				c-2.9,5.8-9.9,6.9-15.7,8c-6.3,1.1-11.9,5.3-14.6,11.1c18.5,0.3,37,5.8,52.3,16.4c16.6,11.2,29.3,28,35.6,47
				C225,128.7,224.7,150.5,217.9,170.1z"/>
			<path class="st0" d="M96.8,204.8c0.4-3.3-1.6-7.9,0.9-10.4c13.1-0.3,26.1,0,39.2-0.1c3.8,0.1,7.6-0.3,11.3,0.4
				c0.6,3.4,0.3,6.8,0.1,10.2C131.2,204.9,114,204.8,96.8,204.8z"/>
			<path class="st0" d="M104.6,217.3c-0.1-3.6-0.1-7.1,0.2-10.6c11.9,0.2,23.8,0.2,35.7,0c0.3,3.5,0.3,7.1,0.2,10.6
				C128.6,217.3,116.6,217.2,104.6,217.3z"/>
			<path class="st0" d="M112.2,219.4c7-0.4,13.9-0.3,20.9-0.1c-0.1,3.4-0.1,6.9-0.1,10.3c-6.9,0.1-13.8,0-20.7,0.1
				C112.2,226.2,112.2,222.8,112.2,219.4z"/>
			<circle class="st0" cx="123.1" cy="58.5" r="11.8"/>
		</g>
	</g>
</g>
</svg>
